Coordinates
version=1
nRows=23
nColumns=38
inDegrees=no

Units are S.I. units (second, meters, Newtons, ...)
If the header above contains a line with 'inDegrees', this indicates whether rotational values are in degrees (yes) or radians (no).

endheader
time	pelvis_tilt	pelvis_list	pelvis_rotation	pelvis_tx	pelvis_ty	pelvis_tz	hip_flexion_r	hip_adduction_r	hip_rotation_r	knee_angle_r	ankle_angle_r	subtalar_angle_r	mtp_angle_r	hip_flexion_l	hip_adduction_l	hip_rotation_l	knee_angle_l	ankle_angle_l	subtalar_angle_l	mtp_angle_l	lumbar_extension	lumbar_bending	lumbar_rotation	arm_flex_r	arm_add_r	arm_rot_r	elbow_flex_r	pro_sup_r	wrist_flex_r	wrist_dev_r	arm_flex_l	arm_add_l	arm_rot_l	elbow_flex_l	pro_sup_l	wrist_flex_l	wrist_dev_l
0.57	0.35221	1.38982	-1.80914	0.68283	1.00497	0.966153	0.336973	-0.216379	-0.233443	0.930313	0.0284297	0	0	-0.231065	0.0414141	-0.104266	0.228017	0.209538	0	0	-0.252041	-0.056434	-0.0808672	-0.106287	-0.130501	-0.0316681	0.440989	1.25452	0	0	0.0333031	-0.315228	0.502485	0.653017	0.770848	0	0
0.58	0.336761	1.39044	-1.79182	0.683133	0.995896	0.965301	0.339603	-0.214558	-0.247713	0.885777	0.0346424	0	0	-0.24591	0.0377826	-0.0997544	0.220481	0.215153	0	0	-0.254656	-0.0518457	-0.0842838	-0.105458	-0.129663	-0.0303589	0.436211	1.25182	0	0	0.0464146	-0.313723	0.496263	0.654863	0.786014	0	0
0.59	0.320128	1.3912	-1.77392	0.683304	0.986742	0.964353	0.341115	-0.211958	-0.262917	0.839291	0.039261	0	0	-0.260758	0.0337078	-0.096244	0.213028	0.221058	0	0	-0.257282	-0.0469343	-0.0868779	-0.105106	-0.129012	-0.0284744	0.432372	1.25099	0	0	0.0588145	-0.311493	0.487822	0.656805	0.802135	0	0
0.6	0.30209	1.39246	-1.75565	0.68333	0.977438	0.963286	0.342213	-0.20833	-0.278308	0.791698	0.0428277	0	0	-0.275434	0.0292952	-0.0943963	0.205332	0.227062	0	0	-0.258621	-0.0421784	-0.0889217	-0.104535	-0.128665	-0.0234705	0.427421	1.25056	0	0	0.0700692	-0.308997	0.479073	0.65828	0.817224	0	0
0.61	0.285568	1.39455	-1.73915	0.683241	0.968038	0.962048	0.343704	-0.204531	-0.294595	0.743942	0.045798	0	0	-0.288518	0.0248574	-0.0942507	0.198874	0.233464	0	0	-0.25903	-0.0375482	-0.090612	-0.104128	-0.127984	-0.0210467	0.423334	1.24947	0	0	0.0808592	-0.307568	0.47448	0.661051	0.824205	0	0
0.62	0.270144	1.39714	-1.72345	0.683047	0.958536	0.960653	0.345213	-0.200734	-0.312044	0.696463	0.0486333	0	0	-0.300378	0.0203081	-0.0949157	0.193566	0.24008	0	0	-0.259031	-0.0328969	-0.0925938	-0.103758	-0.126957	-0.0210957	0.420187	1.2473	0	0	0.0907863	-0.306208	0.46922	0.66438	0.830745	0	0
0.63	0.250808	1.39969	-1.70315	0.682792	0.948922	0.959196	0.345094	-0.195993	-0.331698	0.647834	0.0509507	0	0	-0.312197	0.0146578	-0.0952735	0.188688	0.246898	0	0	-0.25917	-0.0273545	-0.095092	-0.103528	-0.125814	-0.0230182	0.41811	1.24402	0	0	0.100011	-0.304629	0.463826	0.667867	0.838528	0	0
0.64	0.228192	1.40247	-1.67993	0.682426	0.939207	0.957631	0.344543	-0.18982	-0.351143	0.598921	0.0534011	0	0	-0.323522	0.00837835	-0.0962524	0.184535	0.253969	0	0	-0.258926	-0.0213192	-0.0972451	-0.103635	-0.124802	-0.0244346	0.416589	1.24126	0	0	0.108452	-0.30302	0.458914	0.671473	0.846233	0	0
0.65	0.205926	1.40598	-1.65768	0.681915	0.929375	0.955914	0.344869	-0.182655	-0.368549	0.551045	0.0568253	0	0	-0.333351	0.00226391	-0.0981501	0.181777	0.261182	0	0	-0.257321	-0.0158967	-0.099133	-0.103046	-0.123765	-0.0238839	0.412781	1.23987	0	0	0.116073	-0.301674	0.455101	0.67517	0.852407	0	0
0.66	0.180058	1.40954	-1.63216	0.681249	0.919385	0.954134	0.344485	-0.173673	-0.383933	0.503006	0.0608395	0	0	-0.342843	-0.00437196	-0.10065	0.17979	0.268497	0	0	-0.255559	-0.0100364	-0.100723	-0.101986	-0.122756	-0.0222724	0.407687	1.23909	0	0	0.122965	-0.30027	0.4512	0.678373	0.859098	0	0
0.67	0.1545	1.41325	-1.60711	0.680459	0.909273	0.952261	0.343909	-0.163789	-0.396461	0.455586	0.0659752	0	0	-0.351522	-0.0109972	-0.10414	0.179265	0.276007	0	0	-0.253587	-0.00428463	-0.102195	-0.101283	-0.121699	-0.021311	0.40351	1.23869	0	0	0.129216	-0.299142	0.447991	0.68115	0.866797	0	0
0.68	0.128189	1.41678	-1.58073	0.679592	0.8991	0.950348	0.342439	-0.153139	-0.406424	0.408763	0.0722367	0	0	-0.35919	-0.0180569	-0.108456	0.180922	0.283922	0	0	-0.251981	0.00156945	-0.104122	-0.100877	-0.120429	-0.0231981	0.401318	1.23744	0	0	0.135279	-0.298239	0.445778	0.684035	0.875812	0	0
0.69	0.0972917	1.41987	-1.54937	0.67862	0.88883	0.948455	0.33922	-0.140849	-0.412508	0.361475	0.0789998	0	0	-0.366291	-0.0261627	-0.113449	0.184697	0.29209	0	0	-0.250705	0.0078338	-0.106403	-0.100475	-0.11901	-0.0254301	0.399469	1.23622	0	0	0.140878	-0.297361	0.444461	0.68698	0.883263	0	0
0.7	0.0634031	1.42238	-1.51508	0.677533	0.878352	0.946625	0.334084	-0.127134	-0.413157	0.313961	0.0854018	0	0	-0.373527	-0.0349548	-0.119305	0.189691	0.299811	0	0	-0.249666	0.0143713	-0.108419	-0.0999585	-0.117557	-0.02685	0.396546	1.23583	0	0	0.145915	-0.296385	0.444012	0.688771	0.889479	0	0
0.71	0.023968	1.42349	-1.47496	0.676365	0.867652	0.944944	0.324993	-0.111123	-0.406229	0.264099	0.088732	0	0	-0.381362	-0.0451249	-0.126658	0.196455	0.307204	0	0	-0.249784	0.0219369	-0.11018	-0.100053	-0.116245	-0.0287204	0.394389	1.23673	0	0	0.150716	-0.295017	0.444112	0.689373	0.897904	0	0
0.72	0.0726811	1.42907	-1.52303	0.675426	0.856087	0.942176	0.353629	-0.134699	-0.454355	0.297888	0.127048	0	0	-0.386834	-0.0403969	-0.127612	0.201397	0.312275	0	0	-0.24308	0.0147771	-0.113506	-0.10431	-0.11319	-0.032596	0.394232	1.23659	0	0	0.151693	-0.297287	0.447866	0.693641	0.903682	0	0
0.73	-0.0579485	1.42026	-1.3883	0.673997	0.845474	0.942177	0.290245	-0.075167	-0.365281	0.153678	0.0783161	0	0	-0.399413	-0.0696233	-0.142574	0.21597	0.320375	0	0	-0.254309	0.0392895	-0.115102	-0.101202	-0.112657	-0.0427924	0.392161	1.24255	0	0	0.15974	-0.291339	0.44578	0.686293	0.92459	0	0
0.74	-0.0694571	1.4213	-1.37412	0.672862	0.834077	0.940615	0.281766	-0.0679339	-0.35208	0.121442	0.0788743	0	0	-0.405129	-0.0769318	-0.145755	0.227134	0.323466	0	0	-0.253268	0.0427199	-0.118825	-0.102662	-0.110902	-0.0445557	0.390881	1.24344	0	0	0.162358	-0.290713	0.449962	0.685095	0.928102	0	0
0.75	-0.0826761	1.42171	-1.35756	0.671733	0.822429	0.939197	0.271741	-0.0609266	-0.335573	0.0934416	0.0772377	0	0	-0.410051	-0.0854419	-0.148939	0.241116	0.32605	0	0	-0.252146	0.0466369	-0.122987	-0.104819	-0.109352	-0.0460362	0.390209	1.24417	0	0	0.164001	-0.289852	0.454186	0.68318	0.931385	0	0
0.76	-0.0940221	1.42223	-1.34262	0.670602	0.810551	0.937843	0.264574	-0.0562752	-0.321236	0.0779266	0.0774219	0	0	-0.413711	-0.0941511	-0.151614	0.257582	0.327888	0	0	-0.25031	0.0503575	-0.127112	-0.107443	-0.107891	-0.0475555	0.389438	1.24472	0	0	0.164653	-0.288778	0.458307	0.680753	0.934504	0	0
0.77	-0.097104	1.4206	-1.33288	0.670242	0.798499	0.936917	0.25213	-0.0510122	-0.302522	0.0627848	0.0705336	0	0	-0.419141	-0.102256	-0.148916	0.274407	0.326834	0	0	-0.250729	0.0553679	-0.133672	-0.111019	-0.108039	-0.0492134	0.390745	1.24508	0	0	0.165214	-0.285745	0.4627	0.676772	0.938327	0	0
0.78	-0.118178	1.42337	-1.3108	0.668344	0.786195	0.935336	0.263618	-0.0536137	-0.309688	0.0933633	0.0802146	0	0	-0.41782	-0.112694	-0.154381	0.296254	0.3277	0	0	-0.245319	0.058889	-0.134455	-0.115847	-0.106326	-0.0504125	0.39183	1.24567	0	0	0.163278	-0.285629	0.468081	0.675519	0.942668	0	0
0.79	-0.132893	1.42653	-1.2923	0.667188	0.773652	0.933934	0.274983	-0.0566055	-0.32088	0.1286	0.0823314	0	0	-0.414764	-0.12203	-0.154764	0.319836	0.326382	0	0	-0.23868	0.0629404	-0.138187	-0.121813	-0.106125	-0.0506858	0.393889	1.24739	0	0	0.159659	-0.283653	0.472022	0.672916	0.947019	0	0
